# File created by Blade
# Date/Time:  Thu Sep 25 14:26:36 2014
# Frame Rate: 120.000 fps
#------------------------------------------------------
:FULLY-SPECIFIED
:DEGREES
1371
root 1.132983 26.840100 -1.544772 -4.669992 79.313528 83.032126
Spine -52.712919 10.015553 2.821095
Head -107.303298 -2.440011 -0.296868
LeftShoulder -28.917613 0.622808 36.136076
LeftArm 141.181934 -65.547853 -134.004682
LeftForeArm 40.122209 -0.000000 53.553181
LeftHand -35.011815 -0.000000 118.723727
LeftHandThumb1 -26.253704 0.000000 33.147579
RightShoulder -31.953256 26.353172 -64.460720
RightArm 207.665542 109.497504 216.918598
RightForeArm -50.409686 -0.000000 76.179150
RightHand -13.928569 -0.000000 -69.948372
RightHandThumb1 -24.326973 -0.000000 -32.862282
LeftUpLeg 36.632629 5.287683 24.205201
LeftLeg 83.615084 -0.000000 -0.000000
LeftFoot 11.330495 11.937583 -30.198386
LeftToeBase -42.884765 -0.000000 0.000000
RightUpLeg 34.257832 6.635123 -21.882532
RightLeg 74.847914 -0.000000 -0.000000
RightFoot -27.241052 -26.572751 10.349924
RightToeBase 3.144407 -0.000000 -0.000000
1372
root 1.175667 26.836081 -1.533654 -5.530531 79.272001 82.155005
Spine -52.691236 9.984451 2.869729
Head -107.248578 -2.323086 -0.036020
LeftShoulder -29.205282 2.799211 36.571984
LeftArm 142.592334 -64.016570 -137.444589
LeftForeArm 40.201639 -0.000000 54.690264
LeftHand -35.087101 0.000000 118.423202
LeftHandThumb1 -26.253704 0.000000 33.147579
RightShoulder -31.698348 26.428363 -64.033123
RightArm 207.724143 109.354146 216.487166
RightForeArm -50.310137 -0.000000 75.854353
RightHand -13.891964 -0.000000 -70.290754
RightHandThumb1 -24.326973 -0.000000 -32.862282
LeftUpLeg 36.655769 5.160190 24.174885
LeftLeg 83.681743 -0.000000 -0.000000
LeftFoot 11.423106 11.841346 -30.331901
LeftToeBase -43.130668 -0.000000 0.000000
RightUpLeg 34.228972 6.604161 -21.867606
RightLeg 74.896677 -0.000000 -0.000000
RightFoot -27.293574 -26.560394 10.332139
RightToeBase 3.107564 -0.000000 -0.000000
1373
root 1.217030 26.832588 -1.524700 -6.152214 79.270675 81.550316
Spine -52.644892 9.926984 2.891986
Head -107.108838 -1.972484 -0.136264
LeftShoulder -29.316277 3.062952 36.713745
LeftArm 142.425032 -63.722755 -137.484511
LeftForeArm 40.295327 -0.000000 54.788767
LeftHand -35.070947 -0.000000 118.535489
LeftHandThumb1 -26.253704 0.000000 33.147579
RightShoulder -31.626744 26.494549 -63.811836
RightArm 208.089262 109.360043 216.615749
RightForeArm -50.359774 -0.000000 75.655441
RightHand -13.861956 -0.000000 -70.458023
RightHandThumb1 -24.326973 -0.000000 -32.862282
LeftUpLeg 36.683010 4.989072 24.075106
LeftLeg 83.746462 -0.000000 -0.000000
LeftFoot 11.529608 11.755170 -30.445341
LeftToeBase -43.501447 -0.000000 0.000000
RightUpLeg 34.244455 6.551564 -21.909892
RightLeg 74.935989 -0.000000 -0.000000
RightFoot -27.330902 -26.554741 10.285962
RightToeBase 3.109452 -0.000000 -0.000000
1374
root 1.257311 26.827526 -1.515494 -6.680278 79.294071 81.017838
Spine -52.606811 9.873164 2.889716
Head -107.002214 -1.842201 -0.118443
LeftShoulder -29.308494 3.066303 36.739802
LeftArm 142.360342 -63.754034 -137.284510
LeftForeArm 40.203994 0.000000 54.703149
LeftHand -35.020307 -0.000000 118.608850
LeftHandThumb1 -26.253704 0.000000 33.147579
RightShoulder -31.621414 26.483624 -63.697248
RightArm 208.407021 109.356898 216.825712
RightForeArm -50.446718 0.000000 75.492869
RightHand -13.825870 -0.000000 -70.563700
RightHandThumb1 -24.326973 -0.000000 -32.862282
LeftUpLeg 36.665373 4.801132 23.956289
LeftLeg 83.827761 -0.000000 -0.000000
LeftFoot 11.645458 11.664040 -30.609787
LeftToeBase -43.784407 -0.000000 0.000000
RightUpLeg 34.252440 6.484095 -21.948792
RightLeg 74.989900 -0.000000 -0.000000
RightFoot -27.395296 -26.481204 10.300296
RightToeBase 3.142332 -0.000000 -0.000000
1375
root 1.298706 26.824453 -1.503501 -7.327685 79.308150 80.388284
Spine -52.540979 9.857542 2.877848
Head -106.945490 -1.829101 -0.063235
LeftShoulder -29.268722 3.152393 36.794139
LeftArm 142.369319 -63.755047 -137.296138
LeftForeArm 40.092911 -0.000000 54.693337
LeftHand -34.983365 -0.000000 118.718727
LeftHandThumb1 -26.253704 0.000000 33.147579
RightShoulder -31.677238 26.421908 -63.668427
RightArm 208.767212 109.355629 217.173195
RightForeArm -50.585270 0.000000 75.348685
RightHand -13.777926 -0.000000 -70.694200
RightHandThumb1 -24.326973 -0.000000 -32.862282
LeftUpLeg 36.677840 4.599527 23.858948
LeftLeg 83.894506 -0.000000 -0.000000
LeftFoot 11.772498 11.557539 -30.735905
LeftToeBase -44.024364 -0.000000 0.000000
RightUpLeg 34.288794 6.421949 -21.983881
RightLeg 75.025819 -0.000000 -0.000000
RightFoot -27.462785 -26.406756 10.296147
RightToeBase 3.211023 -0.000000 -0.000000
1376
root 1.334854 26.818179 -1.492475 -8.060731 79.319944 79.647593
Spine -52.523850 9.957893 2.949884
Head -106.870906 -2.128569 -0.065752
LeftShoulder -28.697512 0.699767 36.363539
LeftArm 140.886504 -65.770540 -133.323530
LeftForeArm 39.619595 0.000000 53.223324
LeftHand -34.603741 0.000000 119.342698
LeftHandThumb1 -26.253704 0.000000 33.147579
RightShoulder -31.780857 26.320816 -64.051316
RightArm 208.537049 109.456180 217.284025
RightForeArm -50.653597 -0.000000 75.399705
RightHand -13.770600 0.000000 -70.752890
RightHandThumb1 -24.326973 -0.000000 -32.862282
LeftUpLeg 36.667275 4.419176 23.781268
LeftLeg 83.977976 -0.000000 -0.000000
LeftFoot 11.852579 11.462315 -30.825680
LeftToeBase -43.880802 -0.000000 0.000000
RightUpLeg 34.287200 6.356019 -21.961959
RightLeg 75.073376 -0.000000 -0.000000
RightFoot -27.495150 -26.380759 10.290085
RightToeBase 3.223850 -0.000000 -0.000000
1377
root 1.375312 26.817240 -1.481052 -8.683749 79.321101 78.983963
Spine -52.557777 9.837787 2.932134
Head -106.705157 -2.080123 0.308866
LeftShoulder -28.982750 3.076310 36.957351
LeftArm 142.341599 -64.365194 -137.072856
LeftForeArm 39.578387 -0.000000 54.515059
LeftHand -34.780727 -0.000000 119.110325
LeftHandThumb1 -26.253704 0.000000 33.147579
RightShoulder -31.521355 26.443422 -63.739308
RightArm 207.743321 109.427541 216.197983
RightForeArm -50.513773 -0.000000 75.121877
RightHand -13.680702 -0.000000 -71.039834
RightHandThumb1 -24.326973 -0.000000 -32.862282
LeftUpLeg 36.661487 4.264301 23.706069
LeftLeg 84.025923 -0.000000 -0.000000
LeftFoot 11.906261 11.351004 -30.921842
LeftToeBase -44.005949 -0.000000 0.000000
RightUpLeg 34.268529 6.288630 -21.966084
RightLeg 75.082098 -0.000000 -0.000000
RightFoot -27.526108 -26.383944 10.276169
RightToeBase 3.243773 -0.000000 -0.000000
1378
root 1.415047 26.812780 -1.470046 -9.156594 79.345802 78.512292
Spine -52.542070 9.767632 2.884731
Head -106.665202 -1.962370 0.396638
LeftShoulder -28.924490 2.923707 37.036633
LeftArm 142.116473 -64.528533 -136.624318
LeftForeArm 39.469682 -0.000000 54.369593
LeftHand -34.671209 0.000000 119.292312
LeftHandThumb1 -26.253704 0.000000 33.147579
RightShoulder -31.482269 26.440914 -63.629127
RightArm 207.623505 109.472397 216.000205
RightForeArm -50.507074 -0.000000 74.975027
RightHand -13.613362 0.000000 -71.267049
RightHandThumb1 -24.326973 -0.000000 -32.862282
LeftUpLeg 36.670125 4.084824 23.580857
LeftLeg 84.097779 -0.000000 -0.000000
LeftFoot 11.897164 11.259188 -30.993038
LeftToeBase -44.066120 -0.000000 0.000000
RightUpLeg 34.287364 6.213514 -22.010449
RightLeg 75.140648 -0.000000 -0.000000
RightFoot -27.566146 -26.337083 10.292590
RightToeBase 3.160470 -0.000000 -0.000000
1379
root 1.450762 26.806336 -1.460255 -9.641787 79.375232 78.058298
Spine -52.460328 9.746917 2.870407
Head -106.649473 -2.161480 0.573008
LeftShoulder -28.845395 1.236192 36.694356
LeftArm 140.594896 -65.425528 -133.288983
LeftForeArm 39.507194 -0.000000 53.284067
LeftHand -34.456966 0.000000 119.644300
LeftHandThumb1 -26.253704 0.000000 33.147579
RightShoulder -31.609821 26.317987 -63.688933
RightArm 207.898032 109.535242 216.392637
RightForeArm -50.565432 0.000000 74.955491
RightHand -13.653491 -0.000000 -71.357291
RightHandThumb1 -24.326973 -0.000000 -32.862282
LeftUpLeg 36.695755 3.913431 23.472823
LeftLeg 84.179645 -0.000000 -0.000000
LeftFoot 11.866633 11.212066 -31.103023
LeftToeBase -44.098474 -0.000000 0.000000
RightUpLeg 34.328549 6.164282 -22.038122
RightLeg 75.183943 -0.000000 -0.000000
RightFoot -27.632567 -26.271650 10.307194
RightToeBase 3.200006 -0.000000 -0.000000
1380
root 1.488073 26.803957 -1.448531 -10.283762 79.375248 77.375556
Spine -52.515816 9.712962 2.891892
Head -106.516022 -2.000333 0.519063
LeftShoulder -28.748626 2.817929 37.015827
LeftArm 142.051088 -64.913890 -136.132667
LeftForeArm 39.246186 0.000000 54.077187
LeftHand -34.481521 -0.000000 119.569356
LeftHandThumb1 -26.253704 0.000000 33.147579
RightShoulder -31.496790 26.318063 -63.674756
RightArm 207.325077 109.602296 215.822977
RightForeArm -50.474517 -0.000000 74.805470
RightHand -13.553770 0.000000 -71.618172
RightHandThumb1 -24.326973 -0.000000 -32.862282
LeftUpLeg 36.705053 3.789406 23.421005
LeftLeg 84.228354 -0.000000 -0.000000
LeftFoot 11.815353 11.172249 -31.241001
LeftToeBase -44.218697 -0.000000 0.000000
RightUpLeg 34.311972 6.098197 -22.030451
RightLeg 75.212520 -0.000000 -0.000000
RightFoot -27.688550 -26.216188 10.333287
RightToeBase 3.174101 -0.000000 -0.000000
1381
root 1.523075 26.799743 -1.436660 -10.631966 79.407470 77.018483
Spine -52.517412 9.562429 2.859588
Head -106.475585 -1.895802 0.712190
LeftShoulder -28.789977 2.781780 37.128991
LeftArm 141.808216 -64.963245 -135.719364
LeftForeArm 39.216325 0.000000 53.953086
LeftHand -34.370352 -0.000000 119.734882
LeftHandThumb1 -26.253704 0.000000 33.147579
RightShoulder -31.415952 26.399568 -63.550438
RightArm 206.797897 109.693227 215.280897
RightForeArm -50.359072 -0.000000 74.720319
RightHand -13.420451 -0.000000 -71.702611
RightHandThumb1 -24.326973 -0.000000 -32.862282
LeftUpLeg 36.697386 3.645566 23.298649
LeftLeg 84.302744 -0.000000 -0.000000
LeftFoot 11.771968 11.203954 -31.412268
LeftToeBase -44.288629 -0.000000 0.000000
RightUpLeg 34.320207 6.012623 -22.087414
RightLeg 75.251788 -0.000000 -0.000000
RightFoot -27.740465 -26.197503 10.331052
RightToeBase 3.220603 -0.000000 -0.000000
